<svg width="70" height="70" viewBox="0 0 70 70" fill="none" xmlns="http://www.w3.org/2000/svg">
<circle cx="35" cy="35" r="35" fill="#FF2751"/>
<path d="M28.8428 39.1045C29.0771 37.5371 28.9746 34.417 28.8428 32.8643C28.6084 30.3594 26.9824 28.7334 24.7119 28.7334C22.4121 28.7334 20.8154 30.3594 20.5371 32.8643C20.4053 34.417 20.332 37.5371 20.5371 39.1045C20.8447 41.3604 22.4121 43.2354 24.7119 43.2354C26.9824 43.2354 28.4326 41.7119 28.8428 39.1045ZM24.7119 24.1338C29.5166 24.1338 33.2373 28.1182 33.4424 32.8643C33.4863 34.417 33.5156 37.5371 33.4424 39.1045C33.208 44.1436 29.5166 47.835 24.7119 47.835C19.8633 47.835 16.3037 43.9092 15.9668 39.1045C15.835 37.5371 15.8643 34.417 15.9668 32.8643C16.1719 28.1182 19.8633 24.1338 24.7119 24.1338ZM44.3701 32.0293C48.3545 32.0293 51.4453 35.1641 51.4453 39.5879C51.4453 43.9092 47.4023 47.5859 42.4072 47.5859C39.1113 47.5859 36.2256 46.0479 34.6582 43.748L36.709 40.6572C37.7197 42.4297 40.0928 43.748 42.1289 43.748C44.8096 43.748 46.9775 41.7119 46.9775 39.3828C46.9775 37.1123 45.3369 35.3984 42.9785 35.3984C41.7041 35.3984 40.4443 35.7939 39.4336 36.5557L37.0166 35.5449L39.3896 24.3682H50.8447V28.4844H42.5244L41.9678 32.2344C43.0371 31.9414 43.9307 32.0293 44.3701 32.0293Z" fill="white"/>
</svg>
