<svg width="70" height="70" viewBox="0 0 70 70" fill="none" xmlns="http://www.w3.org/2000/svg">
<circle cx="35" cy="35" r="35" fill="#FF2751"/>
<path d="M31.8428 39.1045C32.0771 37.5371 31.9746 34.417 31.8428 32.8643C31.6084 30.3594 29.9824 28.7334 27.7119 28.7334C25.4121 28.7334 23.8154 30.3594 23.5371 32.8643C23.4053 34.417 23.332 37.5371 23.5371 39.1045C23.8447 41.3604 25.4121 43.2354 27.7119 43.2354C29.9824 43.2354 31.4326 41.7119 31.8428 39.1045ZM27.7119 24.1338C32.5166 24.1338 36.2373 28.1182 36.4424 32.8643C36.4863 34.417 36.5156 37.5371 36.4424 39.1045C36.208 44.1436 32.5166 47.835 27.7119 47.835C22.8633 47.835 19.3037 43.9092 18.9668 39.1045C18.835 37.5371 18.8643 34.417 18.9668 32.8643C19.1719 28.1182 22.8633 24.1338 27.7119 24.1338ZM44.7334 24.4854H47.4727V47.0146H42.9902V29.8027L39.6797 31.3555V26.5654L44.7334 24.4854Z" fill="white"/>
</svg>
