2<svg width="70" height="70" viewBox="0 0 70 70" fill="none" xmlns="http://www.w3.org/2000/svg">
<circle cx="35" cy="35" r="35" fill="#FF2751"/>
<path d="M28.8428 39.1045C29.0771 37.5371 28.9746 34.417 28.8428 32.8643C28.6084 30.3594 26.9824 28.7334 24.7119 28.7334C22.4121 28.7334 20.8154 30.3594 20.5371 32.8643C20.4053 34.417 20.332 37.5371 20.5371 39.1045C20.8447 41.3604 22.4121 43.2354 24.7119 43.2354C26.9824 43.2354 28.4326 41.7119 28.8428 39.1045ZM24.7119 24.1338C29.5166 24.1338 33.2373 28.1182 33.4424 32.8643C33.4863 34.417 33.5156 37.5371 33.4424 39.1045C33.208 44.1436 29.5166 47.835 24.7119 47.835C19.8633 47.835 16.3037 43.9092 15.9668 39.1045C15.835 37.5371 15.8643 34.417 15.9668 32.8643C16.1719 28.1182 19.8633 24.1338 24.7119 24.1338ZM42.2461 42.708H50.918V47.0146H35.1123V44.1875C35.1123 44.1875 43.96 35.8525 45.5127 33.626C46.3184 32.4688 46.377 31.458 46.377 30.8428C46.377 28.8359 44.5166 27.9131 42.7295 27.9131C39.7119 27.9131 38.9502 31.7656 38.9502 31.7656L35.0537 30.125C35.8154 26.624 38.8037 23.9434 42.9492 23.9434C47.3877 23.9434 50.7715 27.0488 50.7715 30.8721C50.7715 32.3223 50.2148 34.0361 49.1602 35.4863C47.6514 37.5664 42.2461 42.708 42.2461 42.708Z" fill="white"/>
</svg>
