<svg width="70" height="70" viewBox="0 0 70 70" fill="none" xmlns="http://www.w3.org/2000/svg">
<circle cx="34.9995" cy="35" r="35" fill="#FF2751"/>
<path d="M28.8422 39.1045C29.0766 37.5371 28.9741 34.417 28.8422 32.8643C28.6078 30.3594 26.9819 28.7334 24.7114 28.7334C22.4116 28.7334 20.8149 30.3594 20.5366 32.8643C20.4047 34.417 20.3315 37.5371 20.5366 39.1045C20.8442 41.3604 22.4116 43.2354 24.7114 43.2354C26.9819 43.2354 28.4321 41.7119 28.8422 39.1045ZM24.7114 24.1338C29.5161 24.1338 33.2368 28.1182 33.4418 32.8643C33.4858 34.417 33.5151 37.5371 33.4418 39.1045C33.2075 44.1436 29.5161 47.835 24.7114 47.835C19.8627 47.835 16.3032 43.9092 15.9662 39.1045C15.8344 37.5371 15.8637 34.417 15.9662 32.8643C16.1713 28.1182 19.8627 24.1338 24.7114 24.1338ZM49.3793 34.8271C51.225 35.8672 52.5434 38.0645 52.5434 40.2178C52.5434 44.2754 48.7934 47.5859 44.1938 47.5859C40.561 47.5859 37.3823 45.5498 36.2397 42.5176L36.0639 42.0195L39.433 39.7637L39.5063 39.9688C39.5356 39.998 41.1909 43.5576 44.0327 43.5576C45.893 43.5576 48.2221 42.4004 48.2221 40.2764C48.2221 38.4453 46.4203 36.9805 44.1938 36.9805H42.3334V32.9521H44.1938C45.8637 32.9521 47.2114 31.8535 47.2114 30.4619C47.2114 28.8506 45.4828 27.957 44.062 27.957C41.308 27.957 40.6782 30.3594 40.6782 30.3594L37.353 28.1182L37.6459 27.5762C38.9203 25.335 41.4252 23.9287 44.1938 23.9287C48.2368 23.9287 51.5327 26.9316 51.5327 30.623C51.5327 32.0586 50.8588 33.875 49.3793 34.8271Z" fill="white"/>
</svg>
