<svg width="70" height="70" viewBox="0 0 70 70" fill="none" xmlns="http://www.w3.org/2000/svg">
<circle cx="35" cy="35" r="35" fill="#FF2751"/>
<path d="M28.8428 39.1045C29.0771 37.5371 28.9746 34.417 28.8428 32.8643C28.6084 30.3594 26.9824 28.7334 24.7119 28.7334C22.4121 28.7334 20.8154 30.3594 20.5371 32.8643C20.4053 34.417 20.332 37.5371 20.5371 39.1045C20.8447 41.3604 22.4121 43.2354 24.7119 43.2354C26.9824 43.2354 28.4326 41.7119 28.8428 39.1045ZM24.7119 24.1338C29.5166 24.1338 33.2373 28.1182 33.4424 32.8643C33.4863 34.417 33.5156 37.5371 33.4424 39.1045C33.208 44.1436 29.5166 47.835 24.7119 47.835C19.8633 47.835 16.3037 43.9092 15.9668 39.1045C15.835 37.5371 15.8643 34.417 15.9668 32.8643C16.1719 28.1182 19.8633 24.1338 24.7119 24.1338ZM45.6299 23.9727H49.3506V38.5771H51.7236V42.7959H49.3506V47H44.7803V42.7959H33.9551V39.9248L45.6299 23.9727ZM44.7803 31.1797L39.2578 38.5771H44.7803V31.1797Z" fill="white"/>
</svg>
