<svg width="78" height="78" viewBox="0 0 78 78" fill="none" xmlns="http://www.w3.org/2000/svg">
<g filter="url(#filter0_d_18560_28079)">
<circle cx="39" cy="35" r="35" fill="#FF2751"/>
<path d="M32.8428 39.1045C33.0771 37.5371 32.9746 34.417 32.8428 32.8643C32.6084 30.3594 30.9824 28.7334 28.7119 28.7334C26.4121 28.7334 24.8154 30.3594 24.5371 32.8643C24.4053 34.417 24.332 37.5371 24.5371 39.1045C24.8447 41.3604 26.4121 43.2354 28.7119 43.2354C30.9824 43.2354 32.4326 41.7119 32.8428 39.1045ZM28.7119 24.1338C33.5166 24.1338 37.2373 28.1182 37.4424 32.8643C37.4863 34.417 37.5156 37.5371 37.4424 39.1045C37.208 44.1436 33.5166 47.835 28.7119 47.835C23.8633 47.835 20.3037 43.9092 19.9668 39.1045C19.835 37.5371 19.8643 34.417 19.9668 32.8643C20.1719 28.1182 23.8633 24.1338 28.7119 24.1338ZM49.6299 23.9727H53.3506V38.5771H55.7236V42.7959H53.3506V47H48.7803V42.7959H37.9551V39.9248L49.6299 23.9727ZM48.7803 31.1797L43.2578 38.5771H48.7803V31.1797Z" fill="white"/>
</g>
<defs>
<filter id="filter0_d_18560_28079" x="0" y="0" width="78" height="78" filterUnits="userSpaceOnUse" color-interpolation-filters="sRGB">
<feFlood flood-opacity="0" result="BackgroundImageFix"/>
<feColorMatrix in="SourceAlpha" type="matrix" values="0 0 0 0 0 0 0 0 0 0 0 0 0 0 0 0 0 0 127 0" result="hardAlpha"/>
<feOffset dy="4"/>
<feGaussianBlur stdDeviation="2"/>
<feComposite in2="hardAlpha" operator="out"/>
<feColorMatrix type="matrix" values="0 0 0 0 0 0 0 0 0 0 0 0 0 0 0 0 0 0 0.25 0"/>
<feBlend mode="normal" in2="BackgroundImageFix" result="effect1_dropShadow_18560_28079"/>
<feBlend mode="normal" in="SourceGraphic" in2="effect1_dropShadow_18560_28079" result="shape"/>
</filter>
</defs>
</svg>
