<svg width="176" height="36" viewBox="0 0 176 36" fill="none" xmlns="http://www.w3.org/2000/svg">
<g clip-path="url(#clip0_18560_28139)">
<g clip-path="url(#clip1_18560_28139)">
<path d="M22.7009 20.1643C22.2958 22.7861 20.2486 24.416 17.3542 24.416C13.7006 24.416 11.3403 21.6271 11.3403 17.3122C11.3403 13.2341 13.6648 10.7056 17.4078 10.7056C20.0544 10.7056 22.0377 12.2264 22.4594 14.5798L22.5105 14.8561H27.4829L27.4343 14.4746C26.7851 9.31642 22.7993 5.85132 17.519 5.85132H17.358C14.3217 5.85132 11.5358 7.01293 9.5129 9.12172C7.45419 11.2687 6.34241 14.2286 6.38969 17.4464C6.3488 20.7668 7.48486 23.803 9.58447 25.9973C11.6112 28.1101 14.392 29.273 17.4181 29.273H17.574C22.7278 29.273 26.8835 25.5724 27.6797 20.2735L27.7384 19.8788H22.7469L22.7009 20.1643Z" fill="black"/>
<path d="M53.6503 24.6252C53.6209 24.1345 53.4752 22.9347 53.3512 22.048C53.0842 20.3234 52.4669 19.2854 51.3347 18.7105C53.1008 17.6423 54.0285 15.798 54.0285 13.33C54.0285 8.80858 51.2631 6.21436 46.4429 6.21436H36.2784V28.7467H41.128V20.447H45.3796C47.9597 20.5786 47.9674 20.6286 48.4019 23.3899L48.5629 24.6607C48.7712 26.413 48.9105 27.5706 49.3424 28.5494L49.4293 28.7467H54.403V28.0626L54.3774 27.9982C53.8765 26.8076 53.7806 26.1249 53.6503 24.6252ZM41.1268 11.0673H45.6084C47.1751 11.0673 49.0434 11.4936 49.0434 13.5247C49.0434 15.1731 47.9329 16.0085 45.7426 16.0085H41.128L41.1268 11.0673Z" fill="black"/>
<path d="M60.9742 19.6998H72.1009V15.0679H60.9742V11.0673H73.0415V6.21436H56.1258V28.7467H73.1756V23.8937H60.9742V19.6998Z" fill="black"/>
<path d="M84.1146 6.21436L74.5546 28.7467H79.794L81.6738 24.1818H91.6671L93.543 28.7467H98.7825L89.2199 6.21436H84.1146ZM83.6738 19.3288L86.6909 12.1658L89.6633 19.3288H83.6738Z" fill="black"/>
<path d="M115.362 6.21436H94.4963V11.0963H102.505V28.7467H107.353V11.0963H115.362V6.21436Z" fill="black"/>
<path d="M126.271 5.77124H125.951C122.806 5.77124 119.944 6.94601 117.9 9.07979C115.855 11.2136 114.756 14.1564 114.791 17.365C114.751 20.6827 115.881 23.7084 117.971 25.8883C120.016 28.0181 122.849 29.1916 125.952 29.1916H126.269C129.296 29.1916 132.073 28.0365 134.083 25.9396C136.18 23.7532 137.311 20.709 137.278 17.3742C137.317 14.1288 136.211 11.1649 134.162 9.02848C132.147 6.92364 129.346 5.77124 126.278 5.77124H126.271ZM126.112 24.3373C122.365 24.3373 119.749 21.4155 119.749 17.2334C119.749 13.3447 122.365 10.6282 126.112 10.6282C129.764 10.6282 132.314 13.3447 132.314 17.2334C132.314 21.4168 129.759 24.3373 126.112 24.3373Z" fill="black"/>
<path d="M156.205 24.6252C156.177 24.1424 156.034 22.965 155.906 22.048C155.639 20.3234 155.022 19.2854 153.89 18.7105C155.656 17.6423 156.582 15.798 156.582 13.33C156.582 8.80858 153.818 6.21436 148.996 6.21436H138.833V28.7467H143.682V20.447H147.933C150.513 20.5786 150.522 20.6286 150.957 23.3899L151.118 24.6607C151.326 26.413 151.465 27.5706 151.896 28.5494L151.984 28.7467H156.958V28.0626L156.932 27.9982C156.431 26.8063 156.335 26.1235 156.205 24.6252ZM143.682 11.0673H148.165C149.731 11.0673 151.598 11.4936 151.598 13.5247C151.598 15.1731 150.489 16.0085 148.3 16.0085H143.682V11.0673Z" fill="black"/>
<path d="M174.782 17.8307C173.925 16.8862 172.993 16.2771 171.917 15.9666C170.895 15.6706 169.54 15.4141 167.755 15.1773C166.548 15.0339 165.628 14.859 165.071 14.7406C163.282 14.317 163.067 13.425 163.067 12.8015C163.067 10.84 165.038 10.4335 166.69 10.4335C168.957 10.4335 170.3 11.4649 170.476 13.3369L170.504 13.6421H175.752V13.304C175.752 8.79964 172.143 5.77393 166.771 5.77393C161.493 5.77393 158.081 8.55627 158.081 12.862C158.081 14.6024 158.5 15.9469 159.318 16.848C160.073 17.7584 161.072 18.4192 162.191 18.7477C163.546 19.1198 164.926 19.3915 166.32 19.5607C167.618 19.7422 168.515 19.9145 169.031 20.0237C170.78 20.446 170.983 21.3182 170.983 21.9365C170.983 23.5612 169.497 24.532 167.01 24.532C164.423 24.532 162.897 23.2375 162.823 20.9801L162.812 20.6552H157.464V20.9933C157.464 25.9699 161.17 29.1877 166.902 29.1877C172.424 29.1877 175.992 26.3185 175.992 21.8773C175.992 20.1408 175.585 18.7819 174.774 17.8281" fill="black"/>
<path d="M17.0575 35.1246C7.65212 35.1246 0 27.2433 0 17.5597C0 7.87606 7.65212 0 17.0575 0C26.4629 0 34.1202 7.87738 34.1202 17.5597C34.1202 27.2419 26.4642 35.1246 17.0575 35.1246ZM17.0575 3.38354C14.333 3.38354 11.6697 4.21528 9.40438 5.77358C7.13908 7.33188 5.37356 9.54674 4.33111 12.138C3.28866 14.7293 3.0161 17.5807 3.5479 20.3314C4.07971 23.0822 5.39199 25.6089 7.31878 27.5918C9.24558 29.5748 11.7003 30.925 14.3726 31.4717C17.0448 32.0184 19.8146 31.737 22.3315 30.6631C24.8484 29.5893 26.9994 27.7712 28.5125 25.4388C30.0256 23.1063 30.8329 20.3644 30.8321 17.5597C30.828 13.8003 29.3755 10.1961 26.7931 7.53792C24.2107 4.87975 20.7094 3.38474 17.0575 3.38091" fill="black"/>
</g>
</g>
<defs>
<clipPath id="clip0_18560_28139">
<rect width="176" height="36" fill="white"/>
</clipPath>
<clipPath id="clip1_18560_28139">
<rect width="176" height="36" fill="white"/>
</clipPath>
</defs>
</svg>
