<svg width="148" height="30" viewBox="0 0 148 30" fill="none" xmlns="http://www.w3.org/2000/svg">
<g clip-path="url(#clip0_18560_28118)">
<g clip-path="url(#clip1_18560_28118)">
<path d="M18.9977 16.8034C18.6587 18.9883 16.9455 20.3466 14.5232 20.3466C11.4656 20.3466 9.49037 18.0225 9.49037 14.4267C9.49037 11.0283 11.4357 8.92122 14.5681 8.92122C16.7829 8.92122 18.4427 10.1885 18.7956 12.1498L18.8384 12.38H22.9996L22.959 12.062C22.4157 7.76356 19.0801 4.87598 14.6611 4.87598H14.5264C11.9854 4.87598 9.654 5.84399 7.96106 7.60131C6.23819 9.39043 5.30777 11.857 5.34734 14.5385C5.31312 17.3055 6.26386 19.8357 8.02095 21.6643C9.71709 23.4249 12.0442 24.394 14.5766 24.394H14.7071C19.0202 24.394 22.498 21.3102 23.1643 16.8944L23.2135 16.5655H19.0362L18.9977 16.8034Z" fill="white"/>
<path d="M44.8983 20.521C44.8737 20.1121 44.7518 19.1123 44.6481 18.3735C44.4245 16.9362 43.908 16.0713 42.9605 15.5922C44.4384 14.702 45.2149 13.1651 45.2149 11.1085C45.2149 7.34056 42.9006 5.17871 38.8666 5.17871H30.3603V23.9557H34.4188V17.0393H37.9769C40.1361 17.1489 40.1425 17.1906 40.5061 19.4916L40.6408 20.5506C40.8152 22.0109 40.9317 22.9756 41.2932 23.7912L41.3659 23.9557H45.5282V23.3856L45.5068 23.3319C45.0876 22.3398 45.0074 21.7708 44.8983 20.521ZM34.4178 9.22286H38.1683C39.4794 9.22286 41.043 9.57805 41.043 11.2707C41.043 12.6443 40.1136 13.3405 38.2806 13.3405H34.4188L34.4178 9.22286Z" fill="white"/>
<path d="M51.0274 16.4166H60.3391V12.5566H51.0274V9.22286H61.1262V5.17871H46.97V23.9557H61.2385V19.9115H51.0274V16.4166Z" fill="white"/>
<path d="M70.393 5.17871L62.3925 23.9557H66.7772L68.3504 20.1516H76.7134L78.2834 23.9557H82.6681L74.6654 5.17871H70.393ZM70.0241 16.1075L72.549 10.1382L75.0365 16.1075H70.0241Z" fill="white"/>
<path d="M96.5431 5.17871H79.0812V9.24698H85.7834V23.9557H89.8408V9.24698H96.5431V5.17871Z" fill="white"/>
<path d="M105.673 4.80933H105.404C102.772 4.80933 100.378 5.7883 98.6667 7.56645C96.9556 9.3446 96.0359 11.797 96.0647 14.4708C96.0316 17.2356 96.977 19.757 98.7266 21.5735C100.438 23.3484 102.809 24.3263 105.405 24.3263H105.67C108.204 24.3263 110.528 23.3637 112.21 21.6163C113.965 19.7943 114.912 17.2575 114.884 14.4784C114.917 11.7739 113.991 9.30404 112.276 7.5237C110.59 5.76966 108.246 4.80933 105.678 4.80933H105.673ZM105.539 20.281C102.403 20.281 100.214 17.8462 100.214 14.3611C100.214 11.1206 102.403 8.85676 105.539 8.85676C108.595 8.85676 110.73 11.1206 110.73 14.3611C110.73 17.8473 108.591 20.281 105.539 20.281Z" fill="white"/>
<path d="M130.723 20.521C130.7 20.1187 130.58 19.1376 130.473 18.3735C130.25 16.9362 129.733 16.0713 128.786 15.5922C130.264 14.702 131.039 13.1651 131.039 11.1085C131.039 7.34056 128.726 5.17871 124.691 5.17871H116.185V23.9557H120.243V17.0393H123.801C125.96 17.1489 125.968 17.1906 126.331 19.4916L126.466 20.5506C126.64 22.0109 126.757 22.9756 127.117 23.7912L127.191 23.9557H131.353V23.3856L131.332 23.3319C130.913 22.3387 130.833 21.7697 130.723 20.521ZM120.243 9.22286H123.995C125.306 9.22286 126.868 9.57805 126.868 11.2707C126.868 12.6443 125.94 13.3405 124.108 13.3405H120.243V9.22286Z" fill="white"/>
<path d="M146.27 14.8591C145.552 14.072 144.773 13.5644 143.872 13.3057C143.017 13.059 141.883 12.8453 140.389 12.6479C139.379 12.5284 138.609 12.3826 138.143 12.284C136.646 11.931 136.466 11.1877 136.466 10.6681C136.466 9.03351 138.115 8.69477 139.498 8.69477C141.395 8.69477 142.519 9.55424 142.666 11.1142L142.689 11.3686H147.082V11.0868C147.082 7.33319 144.061 4.81177 139.566 4.81177C135.149 4.81177 132.293 7.13038 132.293 10.7185C132.293 12.1689 132.644 13.2892 133.328 14.0402C133.96 14.7989 134.797 15.3495 135.733 15.6232C136.867 15.9333 138.022 16.1597 139.188 16.3007C140.275 16.452 141.025 16.5956 141.457 16.6866C142.92 17.0385 143.09 17.7653 143.09 18.2806C143.09 19.6345 141.847 20.4435 139.765 20.4435C137.601 20.4435 136.324 19.3648 136.262 17.4836L136.252 17.2128H131.777V17.4945C131.777 21.6417 134.878 24.3232 139.676 24.3232C144.297 24.3232 147.283 21.9323 147.283 18.2312C147.283 16.7842 146.941 15.6517 146.263 14.8569" fill="white"/>
<path d="M14.2749 29.2705C6.40383 29.2705 0 22.7027 0 14.633C0 6.56338 6.40383 0 14.2749 0C22.146 0 28.5541 6.56448 28.5541 14.633C28.5541 22.7016 22.1471 29.2705 14.2749 29.2705ZM14.2749 2.81961C11.9949 2.81961 9.76601 3.51274 7.87025 4.81132C5.97448 6.1099 4.49697 7.95562 3.62458 10.115C2.75218 12.2744 2.52408 14.6506 2.96913 16.9429C3.41419 19.2352 4.5124 21.3407 6.12487 22.9932C7.73735 24.6457 9.79166 25.7708 12.028 26.2264C14.2643 26.682 16.5822 26.4475 18.6886 25.5526C20.7949 24.6577 22.595 23.1426 23.8613 21.199C25.1276 19.2553 25.8031 16.9703 25.8025 14.633C25.7991 11.5002 24.5834 8.49673 22.4223 6.2816C20.2612 4.06646 17.3311 2.82061 14.2749 2.81742" fill="white"/>
</g>
</g>
<defs>
<clipPath id="clip0_18560_28118">
<rect width="147.289" height="30" fill="white"/>
</clipPath>
<clipPath id="clip1_18560_28118">
<rect width="147.289" height="30" fill="white"/>
</clipPath>
</defs>
</svg>
